<svg height="800" node-id="1" sillyvg="true" template-height="800" template-width="800"
	version="1.1" viewBox="0 0 800 800" width="800" xmlns="http://www.w3.org/2000/svg"
	xmlns:xlink="http://www.w3.org/1999/xlink">
	<defs node-id="117"></defs>
	<g node-id="416">
		<g node-id="417">
			<g node-id="418">
				<g node-id="420">
					<g node-id="452">
						<path
							d="M 688.50 176.10 L 688.30 178.70 L 687.00 183.70 L 684.40 188.10 L 682.70 190.10 L 680.70 191.80 L 676.30 194.40 L 671.30 195.70 L 668.70 195.90 L 666.10 195.70 L 661.10 194.40 L 656.70 191.80 L 654.70 190.10 L 651.60 186.00 L 649.60 181.20 L 649.10 178.70 L 648.90 176.10 L 649.60 171.00 L 651.60 166.20 L 654.70 162.10 L 656.70 160.40 L 661.10 157.80 L 666.10 156.50 L 668.70 156.30 L 671.30 156.50 L 676.30 157.80 L 680.70 160.40 L 682.70 162.10 L 684.40 164.10 L 687.00 168.50 L 688.30 173.50 L 688.50 176.10 Z"
							fill="#f3f3f3" fill-rule="nonzero" group-id="7,8,9,11,43" node-id="134" stroke="none"
							target-height="39.59999" target-width="39.599976" target-x="648.9" target-y="156.3" />
					</g>
				</g>
				<g node-id="421">
					<g node-id="453">
						<path
							d="M 120.40 627.90 L 120.20 630.50 L 118.90 635.50 L 116.30 639.90 L 114.60 641.90 L 112.60 643.60 L 108.10 646.20 L 103.20 647.50 L 100.60 647.70 L 98.00 647.50 L 93.00 646.20 L 88.60 643.60 L 86.60 641.90 L 83.40 637.80 L 81.50 633.00 L 81.00 630.50 L 80.80 627.90 L 81.50 622.80 L 83.40 618.00 L 86.60 613.90 L 88.60 612.20 L 93.00 609.60 L 98.00 608.30 L 100.60 608.10 L 103.20 608.30 L 108.10 609.60 L 112.60 612.20 L 114.60 613.90 L 116.30 615.90 L 118.90 620.30 L 120.20 625.30 L 120.40 627.90 Z"
							fill="#f3f3f3" fill-rule="nonzero" group-id="7,8,9,12,44" node-id="142" stroke="none"
							target-height="39.600037" target-width="39.6" target-x="80.8" target-y="608.1" />
					</g>
				</g>
				<g node-id="422">
					<g node-id="454">
						<path
							d="M 221.70 689.90 L 219.30 689.70 L 217.00 689.10 L 215.00 688.10 L 211.50 685.10 L 209.20 681.20 L 208.60 679.00 L 208.30 676.50 L 208.60 674.10 L 209.20 671.80 L 211.50 667.90 L 215.00 665.00 L 217.00 664.00 L 219.30 663.40 L 221.70 663.10 L 224.10 663.40 L 226.40 664.00 L 230.30 666.30 L 233.30 669.80 L 234.30 671.80 L 234.90 674.10 L 235.10 676.50 L 234.90 679.00 L 234.30 681.20 L 231.90 685.10 L 228.50 688.10 L 226.40 689.10 L 224.10 689.70 L 221.70 689.90 Z M 221.70 669.60 L 219.90 669.80 L 218.20 670.50 L 216.80 671.60 L 215.70 673.00 L 215.00 674.70 L 214.80 676.50 L 215.00 678.40 L 215.70 680.00 L 216.80 681.40 L 218.20 682.50 L 219.90 683.20 L 221.70 683.50 L 223.60 683.20 L 225.20 682.50 L 226.60 681.40 L 227.70 680.00 L 228.40 678.40 L 228.70 676.50 L 228.40 674.70 L 227.70 673.00 L 226.60 671.60 L 225.20 670.50 L 223.60 669.80 L 221.70 669.60 Z"
							fill="#f3f3f3" fill-rule="nonzero" group-id="7,8,9,13,45" node-id="150" stroke="none"
							target-height="26.800049" target-width="26.800003" target-x="208.3" target-y="663.1" />
					</g>
				</g>
				<g node-id="423">
					<g node-id="455">
						<path
							d="M 600.10 116.80 L 580.20 116.80 L 580.20 96.80 L 579.90 95.00 L 579.30 93.40 L 578.20 92.10 L 576.90 91.10 L 575.30 90.40 L 573.50 90.20 L 571.70 90.40 L 570.20 91.10 L 568.90 92.10 L 567.80 93.40 L 567.20 95.00 L 566.90 96.80 L 566.90 116.80 L 546.90 116.80 L 545.10 117.00 L 543.60 117.70 L 542.30 118.70 L 541.20 120.00 L 540.60 121.60 L 540.30 123.40 L 540.60 125.20 L 541.20 126.70 L 542.30 128.10 L 543.60 129.10 L 545.10 129.70 L 546.90 130.00 L 566.90 130.00 L 566.90 150.00 L 567.20 151.80 L 567.80 153.30 L 568.90 154.70 L 570.20 155.70 L 571.70 156.30 L 573.50 156.60 L 575.30 156.30 L 576.90 155.70 L 578.20 154.70 L 579.30 153.30 L 579.90 151.80 L 580.20 150.00 L 580.20 130.00 L 600.10 130.00 L 601.90 129.70 L 603.50 129.10 L 604.80 128.10 L 605.90 126.70 L 606.50 125.20 L 606.80 123.40 L 606.50 121.60 L 605.90 120.00 L 604.80 118.70 L 603.50 117.70 L 601.90 117.00 L 600.10 116.80 Z"
							fill="#f3f3f3" fill-rule="nonzero" group-id="7,8,9,14,46" node-id="158" stroke="none"
							target-height="66.40001" target-width="66.5" target-x="540.3" target-y="90.2" />
					</g>
				</g>
				<g node-id="424">
					<g node-id="456">
						<path
							d="M 657.70 693.80 L 642.90 693.80 L 642.70 677.50 L 642.10 676.20 L 640.10 674.20 L 637.40 673.40 L 634.60 674.20 L 632.60 676.20 L 632.10 677.50 L 631.90 693.80 L 617.00 693.80 L 614.20 694.50 L 612.30 696.50 L 611.50 699.30 L 611.70 700.80 L 612.30 702.10 L 614.20 704.10 L 617.00 704.80 L 631.90 704.80 L 632.10 721.10 L 632.60 722.40 L 634.60 724.40 L 637.40 725.20 L 640.10 724.40 L 642.10 722.40 L 642.70 721.10 L 642.90 704.80 L 657.70 704.80 L 660.50 704.10 L 662.50 702.10 L 663.20 699.30 L 662.50 696.50 L 660.50 694.50 L 657.70 693.80 Z"
							fill="#f3f3f3" fill-rule="nonzero" group-id="7,8,9,15,47" node-id="166" stroke="none"
							target-height="51.799988" target-width="51.700012" target-x="611.5" target-y="673.4" />
					</g>
				</g>
				<g node-id="425">
					<g node-id="457">
						<path
							d="M 122.70 132.20 L 125.00 134.20 L 130.00 137.10 L 132.80 138.00 L 138.40 138.70 L 144.10 138.00 L 146.80 137.10 L 151.80 134.20 L 154.20 132.20 L 156.20 129.90 L 159.10 124.80 L 160.00 122.10 L 160.70 116.40 L 160.00 110.80 L 159.10 108.10 L 156.20 103.00 L 154.20 100.70 L 145.20 92.00 L 140.10 89.10 L 134.60 87.70 L 128.90 87.70 L 123.40 89.10 L 118.30 92.00 L 116.00 94.00 L 114.00 96.40 L 111.10 101.40 L 109.60 107.00 L 109.60 112.60 L 111.10 118.20 L 114.00 123.20 L 122.70 132.20 Z"
							fill="#f3f3f3" fill-rule="nonzero" group-id="7,8,9,16,48" node-id="174" stroke="none"
							target-height="51" target-width="51.1" target-x="109.6" target-y="87.7" />
					</g>
				</g>
				<g node-id="426">
					<g node-id="458">
						<path
							d="M 237.40 124.20 L 240.30 126.20 L 243.70 127.10 L 247.10 126.80 L 248.80 126.20 L 251.70 124.20 L 253.80 121.20 L 254.70 117.80 L 254.40 114.40 L 253.80 112.70 L 251.70 109.80 L 241.70 99.80 L 238.80 97.70 L 235.40 96.80 L 232.00 97.10 L 228.80 98.60 L 227.40 99.80 L 226.20 101.20 L 224.70 104.40 L 224.40 107.80 L 225.30 111.20 L 227.40 114.10 L 237.40 124.20 Z"
							fill="#f3f3f3" fill-rule="nonzero" group-id="7,8,9,17,49" node-id="182" stroke="none"
							target-height="30.299995" target-width="30.300003" target-x="224.4" target-y="96.8" />
					</g>
				</g>
				<g node-id="427">
					<g node-id="459">
						<path
							d="M 86.30 324.90 L 89.30 326.90 L 92.60 327.80 L 96.10 327.50 L 97.70 326.90 L 100.70 324.90 L 102.70 321.90 L 103.60 318.50 L 103.30 315.10 L 102.70 313.50 L 100.70 310.50 L 90.70 300.50 L 87.70 298.40 L 84.30 297.50 L 80.90 297.80 L 77.70 299.30 L 76.30 300.50 L 75.10 301.90 L 73.60 305.10 L 73.30 308.50 L 74.20 311.90 L 76.30 314.90 L 86.30 324.90 Z"
							fill="#f3f3f3" fill-rule="nonzero" group-id="7,8,9,18,50" node-id="190" stroke="none"
							target-height="30.299988" target-width="30.299995" target-x="73.3" target-y="297.5" />
					</g>
				</g>
				<g node-id="428">
					<g node-id="460">
						<path
							d="M 614.30 632.30 L 611.30 630.30 L 607.90 629.40 L 604.50 629.70 L 602.90 630.30 L 599.90 632.30 L 597.80 635.30 L 597.20 636.90 L 596.90 640.40 L 597.80 643.70 L 599.90 646.70 L 609.90 656.70 L 612.90 658.80 L 616.20 659.70 L 619.70 659.40 L 622.80 657.90 L 624.30 656.70 L 625.50 655.30 L 626.90 652.10 L 627.20 648.70 L 626.30 645.30 L 624.30 642.30 L 614.30 632.30 Z"
							fill="#f3f3f3" fill-rule="nonzero" group-id="7,8,9,19,51" node-id="198" stroke="none"
							target-height="30.299988" target-width="30.299988" target-x="596.9" target-y="629.4" />
					</g>
				</g>
				<g node-id="429">
					<g node-id="461">
						<path
							d="M 734.70 640.80 L 734.40 645.20 L 733.50 649.30 L 732.20 653.40 L 730.30 657.20 L 727.90 660.70 L 725.10 664.00 L 721.80 666.90 L 718.20 669.20 L 714.40 671.10 L 710.40 672.50 L 706.20 673.30 L 701.90 673.60 L 697.50 673.30 L 693.40 672.50 L 689.30 671.10 L 685.50 669.20 L 682.00 666.90 L 678.70 664.00 L 675.80 660.70 L 673.50 657.20 L 671.60 653.40 L 670.20 649.30 L 669.40 645.20 L 669.10 640.80 L 669.40 636.50 L 670.20 632.30 L 671.60 628.30 L 673.50 624.50 L 675.80 620.90 L 678.70 617.60 L 682.00 614.80 L 685.50 612.40 L 689.30 610.50 L 693.40 609.20 L 697.50 608.30 L 701.90 608.10 L 706.20 608.30 L 710.40 609.20 L 714.40 610.50 L 718.20 612.40 L 721.80 614.80 L 725.10 617.60 L 727.90 620.90 L 730.30 624.50 L 732.20 628.30 L 733.50 632.30 L 734.40 636.50 L 734.70 640.80 Z"
							fill="#f3f3f3" fill-rule="nonzero" group-id="7,8,9,20,52" node-id="206" stroke="none"
							target-height="65.5" target-width="65.60004" target-x="669.1" target-y="608.1" />
					</g>
				</g>
				<g node-id="430">
					<g node-id="462">
						<path
							d="M 702.50 488.90 L 671.00 457.40 L 651.10 436.10 L 648.40 432.10 L 647.20 427.50 L 647.50 422.90 L 648.30 420.70 L 649.40 418.60 L 650.90 416.60 L 652.90 414.80 L 655.10 413.50 L 657.50 412.60 L 660.00 412.10 L 662.40 412.10 L 664.90 412.50 L 667.30 413.30 L 669.50 414.60 L 671.60 416.40 L 685.00 430.10 L 686.90 431.80 L 689.00 433.00 L 693.70 434.30 L 698.40 434.10 L 700.70 433.30 L 702.80 432.20 L 704.80 430.60 L 706.50 428.70 L 707.70 426.60 L 708.50 424.30 L 709.00 421.90 L 709.00 419.60 L 708.60 417.20 L 707.80 414.90 L 706.60 412.80 L 705.00 410.80 L 686.30 392.20 L 683.10 388.50 L 680.30 384.60 L 677.90 380.50 L 676.00 376.10 L 674.60 371.50 L 671.80 355.10 L 669.60 343.70 L 666.90 332.50 L 663.70 321.60 L 660.10 310.80 L 656.00 300.10 L 651.60 289.70 L 646.70 279.60 L 641.50 269.60 L 635.80 260.00 L 629.80 250.50 L 623.40 241.30 L 616.70 232.40 L 609.60 223.80 L 602.20 215.50 L 594.40 207.50 L 586.30 199.80 L 578.00 192.40 L 569.30 185.40 L 560.40 178.70 L 551.10 172.30 L 541.70 166.40 L 532.00 160.80 L 522.00 155.60 L 511.70 150.80 L 501.30 146.40 L 490.70 142.40 L 479.90 138.90 L 468.80 135.80 L 457.50 133.10 L 446.20 130.90 L 434.70 129.20 L 423.00 127.90 L 411.20 127.20 L 399.10 126.90 L 384.80 127.30 L 379.80 126.80 L 375.10 125.10 L 373.00 123.70 L 352.00 102.90 L 347.30 99.30 L 342.00 97.00 L 338.30 96.30 L 334.50 96.20 L 330.80 96.70 L 325.50 98.60 L 323.00 100.10 L 320.60 102.00 L 318.50 104.30 L 316.70 106.70 L 315.40 109.40 L 314.40 112.20 L 313.50 117.90 L 314.20 123.70 L 315.10 126.50 L 316.30 129.20 L 318.00 131.70 L 333.80 148.30 L 335.70 150.80 L 337.10 153.50 L 337.90 156.30 L 338.10 159.20 L 337.90 162.10 L 337.10 164.90 L 335.80 167.50 L 334.10 169.90 L 331.70 172.00 L 329.40 173.40 L 327.10 174.30 L 324.80 174.80 L 322.40 174.80 L 320.10 174.50 L 315.60 172.60 L 311.50 169.30 L 272.80 130.80 L 270.70 129.20 L 268.30 128.20 L 265.80 127.70 L 263.30 127.90 L 261.70 128.30 L 258.70 130.10 L 256.30 133.10 L 255.30 136.60 L 255.50 140.10 L 256.10 141.90 L 258.20 145.00 L 281.90 168.60 L 283.60 171.00 L 285.70 176.10 L 286.40 179.70 L 286.40 183.30 L 285.80 186.90 L 283.70 192.00 L 280.10 196.70 L 277.80 198.70 L 275.40 200.30 L 270.20 202.30 L 266.50 202.90 L 262.80 202.90 L 259.10 202.20 L 253.90 200.10 L 249.20 196.40 L 234.50 181.10 L 199.20 145.80 L 196.80 143.80 L 194.40 142.20 L 189.10 140.00 L 183.40 139.30 L 177.80 140.00 L 172.50 142.20 L 170.00 143.80 L 167.70 145.80 L 164.00 150.60 L 162.80 153.20 L 161.30 158.70 L 161.30 164.40 L 161.90 167.20 L 164.00 172.50 L 167.70 177.30 L 193.30 203.00 L 202.20 211.40 L 205.80 216.00 L 208.00 221.20 L 208.60 224.80 L 208.70 228.50 L 208.10 232.20 L 207.30 234.90 L 204.60 239.80 L 202.70 242.10 L 200.30 244.30 L 197.80 246.00 L 195.10 247.30 L 192.30 248.30 L 189.40 248.80 L 183.50 248.80 L 177.80 247.10 L 175.20 245.70 L 172.70 243.90 L 150.10 220.90 L 146.70 217.90 L 143.20 215.50 L 139.40 213.60 L 135.40 212.20 L 131.30 211.30 L 127.10 211.00 L 123.00 211.10 L 118.90 211.80 L 114.80 213.00 L 111.00 214.70 L 107.40 216.90 L 103.90 219.70 L 100.80 223.10 L 98.30 226.80 L 96.30 230.60 L 94.90 234.70 L 94.00 238.90 L 93.70 243.10 L 93.90 247.40 L 94.70 251.60 L 96.00 255.70 L 97.80 259.60 L 100.30 263.30 L 103.30 266.70 L 158.40 321.60 L 160.40 324.00 L 161.90 326.60 L 162.80 329.40 L 163.30 332.30 L 163.20 335.10 L 162.60 338.00 L 161.60 340.70 L 160.00 343.20 L 157.90 345.60 L 155.60 347.40 L 153.10 348.70 L 150.40 349.50 L 147.70 349.90 L 145.00 349.80 L 142.20 349.30 L 139.60 348.30 L 137.20 346.90 L 135.00 344.90 L 121.50 331.30 L 120.10 330.10 L 116.90 328.60 L 115.20 328.30 L 111.70 328.60 L 108.50 330.10 L 107.10 331.30 L 105.60 332.80 L 104.60 334.40 L 104.00 336.10 L 103.90 339.50 L 104.40 341.20 L 105.50 343.60 L 107.20 345.70 L 125.00 363.50 L 162.00 399.60 L 163.90 401.90 L 165.30 404.30 L 166.20 406.90 L 166.70 409.60 L 166.70 412.30 L 166.20 415.00 L 165.30 417.60 L 163.90 420.10 L 162.00 422.30 L 159.80 424.20 L 157.40 425.50 L 154.90 426.40 L 152.20 426.90 L 149.50 426.90 L 146.90 426.40 L 144.30 425.60 L 141.90 424.20 L 139.70 422.40 L 96.10 379.20 L 94.10 377.60 L 92.00 376.30 L 89.70 375.50 L 87.40 375.00 L 82.60 375.30 L 80.40 376.00 L 78.20 377.10 L 76.30 378.70 L 74.60 380.70 L 73.30 382.80 L 72.50 385.00 L 72.10 387.40 L 72.00 389.80 L 72.40 392.20 L 73.20 394.40 L 74.40 396.60 L 76.10 398.50 L 120.00 442.40 L 122.40 445.30 L 124.40 448.40 L 125.80 451.90 L 129.50 468.00 L 132.60 480.20 L 136.30 492.10 L 140.50 503.80 L 145.20 515.20 L 150.50 526.50 L 156.20 537.40 L 162.30 548.00 L 168.90 558.30 L 176.00 568.30 L 183.50 578.00 L 191.40 587.30 L 199.60 596.30 L 208.30 604.90 L 217.30 613.10 L 226.70 620.90 L 236.40 628.30 L 246.50 635.30 L 256.90 641.80 L 267.60 647.90 L 278.50 653.50 L 289.70 658.60 L 301.20 663.30 L 313.00 667.40 L 325.10 671.10 L 337.20 674.10 L 349.60 676.60 L 362.20 678.60 L 375.00 680.00 L 391.70 681.20 L 395.10 682.00 L 398.50 683.10 L 401.70 684.70 L 404.60 686.70 L 407.40 689.00 L 427.70 708.30 L 432.40 711.90 L 437.60 714.20 L 441.30 714.90 L 445.10 715.10 L 448.80 714.60 L 454.10 712.70 L 456.60 711.20 L 459.00 709.30 L 461.10 706.90 L 462.90 704.50 L 464.20 701.80 L 465.20 699.10 L 466.10 693.30 L 465.40 687.50 L 463.30 682.10 L 461.60 679.50 L 459.60 677.20 L 447.50 664.70 L 445.80 662.50 L 444.70 660.20 L 443.90 657.70 L 443.60 655.20 L 443.80 652.70 L 444.40 650.20 L 445.40 647.90 L 446.80 645.70 L 448.70 643.80 L 450.80 642.20 L 453.00 641.20 L 455.40 640.50 L 457.80 640.30 L 460.20 640.40 L 462.60 640.90 L 464.80 641.80 L 466.90 643.20 L 489.10 666.10 L 511.10 688.10 L 513.50 690.20 L 516.00 691.80 L 521.50 694.00 L 524.30 694.50 L 530.10 694.40 L 535.80 692.80 L 538.40 691.40 L 540.90 689.70 L 543.20 687.50 L 545.10 685.20 L 546.60 682.70 L 548.50 677.40 L 549.00 673.60 L 548.90 669.90 L 548.10 666.20 L 547.20 663.50 L 544.20 658.50 L 525.90 639.60 L 523.80 637.20 L 522.10 634.60 L 520.80 631.80 L 519.40 626.00 L 519.50 620.00 L 520.20 617.10 L 522.60 611.50 L 524.40 609.00 L 526.60 606.60 L 529.40 604.20 L 532.00 602.60 L 537.40 600.50 L 541.20 599.90 L 545.00 599.90 L 548.80 600.50 L 554.20 602.70 L 556.70 604.30 L 559.10 606.30 L 578.80 625.60 L 580.90 627.30 L 583.30 628.30 L 585.80 628.80 L 588.30 628.60 L 591.50 627.40 L 594.30 624.90 L 595.30 623.30 L 596.40 619.90 L 596.10 616.30 L 594.70 613.00 L 588.30 606.30 L 585.70 604.30 L 579.80 598.70 L 563.50 582.10 L 555.70 574.00 L 553.20 570.40 L 552.20 566.20 L 552.70 562.10 L 553.50 560.10 L 556.10 556.50 L 559.70 554.10 L 561.80 553.50 L 565.90 553.20 L 570.00 554.40 L 571.80 555.50 L 604.60 589.80 L 618.70 604.00 L 622.10 606.90 L 625.60 609.30 L 629.40 611.20 L 633.40 612.60 L 637.50 613.50 L 641.70 613.90 L 645.80 613.70 L 649.90 613.10 L 654.00 611.90 L 657.80 610.20 L 661.40 607.90 L 664.90 605.10 L 668.00 601.70 L 670.50 598.10 L 672.50 594.20 L 673.90 590.10 L 674.80 586.00 L 675.10 581.70 L 674.90 577.50 L 674.10 573.30 L 672.80 569.20 L 671.00 565.30 L 668.50 561.60 L 665.50 558.10 L 643.00 535.60 L 631.60 523.10 L 629.90 521.00 L 628.70 518.70 L 627.90 516.20 L 627.60 513.70 L 627.60 511.20 L 628.10 508.70 L 629.00 506.30 L 630.30 504.10 L 632.10 502.00 L 634.30 500.30 L 636.70 499.00 L 639.20 498.20 L 641.80 497.80 L 644.40 497.90 L 647.00 498.40 L 649.40 499.40 L 651.70 500.80 L 671.40 520.70 L 673.70 522.80 L 676.20 524.40 L 678.90 525.70 L 684.60 527.10 L 690.40 527.00 L 693.20 526.40 L 698.70 524.00 L 701.10 522.30 L 703.40 520.10 L 706.90 515.30 L 708.80 510.00 L 709.30 506.30 L 709.20 502.60 L 708.40 498.80 L 706.20 493.60 L 702.50 488.90 Z"
							fill="#f3f3f3" fill-rule="nonzero" group-id="7,8,9,21,53" node-id="214" stroke="none"
							target-height="618.89996" target-width="637.3" target-x="72" target-y="96.2" />
					</g>
				</g>
				<g node-id="431">
					<g node-id="463">
						<path
							d="M 430.00 207.90 L 415.20 207.90 L 415.00 191.60 L 414.40 190.30 L 412.40 188.30 L 409.70 187.50 L 406.90 188.30 L 404.90 190.30 L 404.40 191.60 L 404.20 207.90 L 389.30 207.90 L 386.50 208.60 L 384.60 210.60 L 383.80 213.40 L 384.00 214.90 L 384.60 216.20 L 386.50 218.20 L 389.30 218.90 L 404.20 218.90 L 404.40 235.20 L 404.90 236.50 L 406.90 238.50 L 409.70 239.30 L 412.40 238.50 L 414.40 236.50 L 415.00 235.20 L 415.20 218.90 L 430.00 218.90 L 432.80 218.20 L 434.80 216.20 L 435.50 213.40 L 434.80 210.60 L 432.80 208.60 L 430.00 207.90 Z"
							fill="#ffffff" fill-rule="nonzero" group-id="7,8,9,22,54" node-id="222" stroke="none"
							target-height="51.800003" target-width="51.700012" target-x="383.8" target-y="187.5" />
					</g>
				</g>
				<g node-id="432">
					<g node-id="464">
						<path
							d="M 585.80 426.40 L 583.30 426.20 L 581.10 425.60 L 577.20 423.30 L 574.20 419.80 L 573.20 417.70 L 572.60 415.50 L 572.40 413.10 L 572.60 410.60 L 573.20 408.40 L 575.60 404.40 L 579.00 401.50 L 581.10 400.50 L 583.30 399.90 L 585.80 399.70 L 588.20 399.90 L 590.50 400.50 L 594.40 402.80 L 597.30 406.30 L 598.30 408.40 L 598.90 410.60 L 599.20 413.10 L 598.90 415.50 L 598.30 417.70 L 596.00 421.70 L 592.50 424.60 L 590.50 425.60 L 588.20 426.20 L 585.80 426.40 Z M 585.80 406.10 L 583.90 406.40 L 582.30 407.10 L 580.90 408.10 L 579.80 409.50 L 579.10 411.20 L 578.80 413.10 L 579.10 414.90 L 579.80 416.60 L 580.90 418.00 L 582.30 419.00 L 583.90 419.70 L 585.80 420.00 L 587.60 419.70 L 589.30 419.00 L 590.70 418.00 L 591.80 416.60 L 592.50 414.90 L 592.70 413.10 L 592.50 411.20 L 591.80 409.50 L 590.70 408.10 L 589.30 407.10 L 587.60 406.40 L 585.80 406.10 Z"
							fill="#ffffff" fill-rule="nonzero" group-id="7,8,9,23,55" node-id="230" stroke="none"
							target-height="26.699982" target-width="26.799988" target-x="572.4" target-y="399.7" />
					</g>
				</g>
				<path
					d="M 223.10 528.50 L 220.70 528.20 L 218.50 527.60 L 214.50 525.30 L 211.60 521.80 L 210.60 519.80 L 210.00 517.50 L 209.80 515.10 L 210.00 512.60 L 210.60 510.40 L 212.90 506.50 L 216.40 503.50 L 218.50 502.50 L 220.70 501.90 L 223.10 501.70 L 225.60 501.90 L 227.80 502.50 L 231.80 504.90 L 234.70 508.30 L 235.70 510.40 L 236.30 512.60 L 236.50 515.10 L 236.30 517.50 L 235.70 519.80 L 234.70 521.80 L 231.80 525.30 L 227.80 527.60 L 225.60 528.20 L 223.10 528.50 Z M 223.10 508.10 L 221.30 508.40 L 219.60 509.10 L 218.20 510.20 L 217.10 511.60 L 216.40 513.20 L 216.20 515.10 L 216.40 516.90 L 217.10 518.60 L 218.20 520.00 L 219.60 521.10 L 221.30 521.80 L 223.10 522.00 L 225.00 521.80 L 226.60 521.10 L 228.00 520.00 L 229.10 518.60 L 229.80 516.90 L 230.10 515.10 L 229.80 513.20 L 229.10 511.60 L 228.00 510.20 L 226.60 509.10 L 225.00 508.40 L 223.10 508.10 Z"
					fill="#ffffff" fill-rule="nonzero" group-id="7,8,9,24,56" node-id="238" stroke="none"
					target-height="26.799988" target-width="26.699997" target-x="209.8" target-y="501.7" />
			</g>
			<g node-id="419">
				<g node-id="434">
					<g node-id="466">
						<path d="M 505.60 225.80 L 512.70 209.50 L 517.90 212.80 L 511.90 230.90 Z"
							fill="#ffffff" fill-rule="nonzero" group-id="7,8,10,25,57" node-id="249" stroke="none"
							target-height="21.399994" target-width="12.300018" target-x="505.6" target-y="209.5" />
					</g>
				</g>
				<g node-id="435">
					<g node-id="467">
						<path
							d="M 511.90 233.90 L 510.00 233.20 L 503.70 228.20 L 503.00 227.40 L 502.60 225.60 L 510.00 208.30 L 510.70 207.30 L 511.90 206.60 L 513.10 206.50 L 514.30 207.00 L 519.50 210.30 L 520.30 211.00 L 520.90 212.80 L 514.70 231.80 L 513.60 233.30 L 511.90 233.90 Z M 509.30 224.90 L 510.40 225.90 L 514.30 214.10 L 514.10 213.90 L 509.30 224.90 Z"
							fill="#838383" fill-rule="nonzero" group-id="7,8,10,26,58" node-id="257" stroke="none"
							target-height="27.399994" target-width="18.300018" target-x="502.6" target-y="206.5" />
					</g>
				</g>
				<g node-id="436">
					<g node-id="468">
						<path
							d="M 527.30 204.90 L 526.60 208.50 L 524.60 211.50 L 521.60 213.50 L 518.00 214.20 L 514.80 213.60 L 513.30 212.90 L 511.50 211.50 L 510.00 209.60 L 508.90 206.60 L 508.80 204.90 L 509.30 201.70 L 510.00 200.20 L 511.50 198.40 L 513.30 196.90 L 514.80 196.20 L 518.00 195.70 L 521.60 196.40 L 524.60 198.40 L 526.60 201.40 L 527.30 204.90 Z"
							fill="#ffffff" fill-rule="nonzero" group-id="7,8,10,27,59" node-id="265" stroke="none"
							target-height="18.5" target-width="18.5" target-x="508.8" target-y="195.7" />
					</g>
				</g>
				<g node-id="437">
					<g node-id="469">
						<path
							d="M 518.00 217.20 L 513.90 216.50 L 512.00 215.60 L 508.90 213.10 L 506.70 209.70 L 505.80 205.60 L 505.90 203.10 L 506.50 200.80 L 507.50 198.70 L 508.90 196.70 L 510.70 195.10 L 512.80 193.80 L 515.00 193.00 L 517.40 192.70 L 519.80 192.80 L 522.20 193.40 L 524.30 194.40 L 526.30 195.80 L 527.90 197.60 L 529.10 199.70 L 529.90 201.90 L 530.30 204.30 L 529.70 208.60 L 528.90 210.60 L 526.40 213.90 L 522.90 216.20 L 520.90 216.90 L 518.00 217.20 Z M 518.00 198.70 L 516.10 199.00 L 514.70 199.70 L 513.40 200.70 L 512.40 202.10 L 511.90 203.60 L 511.80 205.30 L 512.10 206.90 L 512.80 208.30 L 513.80 209.60 L 515.20 210.50 L 516.70 211.10 L 518.40 211.20 L 520.00 210.90 L 521.40 210.20 L 522.70 209.10 L 523.60 207.80 L 524.20 206.30 L 524.30 204.60 L 524.00 203.00 L 523.30 201.50 L 522.30 200.30 L 521.00 199.40 L 518.00 198.70 Z"
							fill="#838383" fill-rule="nonzero" group-id="7,8,10,28,60" node-id="273" stroke="none"
							target-height="24.5" target-width="24.5" target-x="505.8" target-y="192.7" />
					</g>
				</g>
				<g node-id="438">
					<g node-id="470">
						<path
							d="M 396.70 261.00 L 401.00 255.20 L 404.70 250.90 L 408.90 246.40 L 418.40 237.80 L 427.80 230.90 L 432.90 227.70 L 438.60 224.70 L 444.70 222.00 L 451.00 219.70 L 457.70 217.80 L 464.90 216.40 L 470.40 215.70 L 482.10 215.50 L 488.40 216.00 L 494.60 216.90 L 501.00 218.30 L 507.80 220.30 L 515.00 222.80 L 522.00 225.80 L 528.20 229.00 L 533.60 232.30 L 538.40 235.70 L 543.00 239.60 L 547.10 243.50 L 550.60 247.40 L 553.60 251.50 L 557.10 257.20 L 559.90 263.00 L 562.10 268.70 L 563.70 274.60 L 564.80 280.30 L 565.80 291.60 L 565.40 301.80 L 564.50 309.00 L 562.10 320.20 L 559.90 327.00 L 549.90 319.20 L 541.20 313.30 L 531.30 307.20 L 518.20 299.80 L 509.00 295.10 L 498.40 290.10 L 486.40 285.00 L 474.20 280.30 L 460.70 275.70 L 445.80 271.20 L 422.80 265.60 L 396.70 261.00 Z"
							fill="#ffffff" fill-rule="nonzero" group-id="7,8,10,29,61" node-id="281" stroke="none"
							target-height="111.5" target-width="169.09998" target-x="396.7" target-y="215.5" />
					</g>
				</g>
				<g node-id="439">
					<g node-id="471">
						<path
							d="M 559.90 330.00 L 557.90 329.30 L 547.60 321.30 L 538.90 315.50 L 529.00 309.40 L 516.00 302.10 L 506.80 297.40 L 484.40 287.50 L 472.40 282.90 L 459.10 278.40 L 444.40 274.00 L 421.80 268.50 L 396.30 263.90 L 394.60 263.00 L 393.70 261.20 L 394.20 259.30 L 398.90 253.00 L 402.60 248.60 L 412.60 238.70 L 421.10 231.90 L 426.10 228.40 L 436.50 222.40 L 442.60 219.60 L 448.90 217.20 L 455.80 215.20 L 463.30 213.60 L 468.90 212.90 L 474.90 212.50 L 481.20 212.50 L 487.90 213.00 L 494.40 213.80 L 501.20 215.30 L 508.40 217.30 L 516.10 220.00 L 522.90 222.90 L 529.20 226.10 L 534.90 229.60 L 540.10 233.20 L 544.90 237.20 L 549.30 241.50 L 553.30 246.10 L 556.90 251.00 L 560.00 256.10 L 562.60 261.60 L 565.00 268.00 L 566.80 274.40 L 567.90 280.50 L 568.60 286.80 L 568.70 298.30 L 567.90 306.40 L 566.80 313.20 L 565.40 319.40 L 562.60 328.10 L 561.40 329.60 L 559.90 330.00 Z M 402.00 258.70 L 415.30 261.10 L 427.70 263.60 L 439.30 266.40 L 461.60 272.90 L 471.50 276.20 L 485.90 281.60 L 498.40 286.80 L 510.00 292.30 L 529.30 302.50 L 544.60 312.00 L 558.40 321.90 L 560.80 312.10 L 561.90 305.70 L 562.60 298.10 L 562.80 292.80 L 561.90 281.50 L 560.90 275.70 L 559.30 269.90 L 557.10 263.90 L 554.60 258.90 L 551.80 254.20 L 548.50 249.70 L 544.80 245.50 L 540.70 241.50 L 536.30 237.90 L 531.40 234.50 L 526.10 231.30 L 520.30 228.30 L 513.90 225.60 L 506.20 222.90 L 498.70 220.80 L 491.30 219.40 L 484.20 218.60 L 477.10 218.30 L 470.20 218.70 L 463.30 219.60 L 456.50 221.10 L 449.70 223.20 L 443.00 225.90 L 436.30 229.20 L 429.60 233.30 L 423.00 237.90 L 417.30 242.60 L 408.10 251.60 L 402.00 258.70 Z"
							fill="#838383" fill-rule="nonzero" group-id="7,8,10,30,62" node-id="289" stroke="none"
							target-height="117.5" target-width="175" target-x="393.7" target-y="212.5" />
					</g>
				</g>
				<g node-id="440">
					<g node-id="472">
						<g node-id="484">
							<path
								d="M 481.00 266.60 L 494.30 271.20 L 507.00 276.10 L 519.00 281.20 L 530.80 286.60 L 541.70 292.20 L 551.80 297.80 L 561.80 303.90 L 570.60 309.80 L 578.50 315.70 L 584.30 320.40 L 593.80 329.40 L 601.30 338.40 L 604.30 342.90 L 606.50 347.10 L 608.20 351.00 L 609.20 354.50 L 609.70 357.70 L 609.80 360.80 L 609.50 363.80 L 608.80 366.70 L 607.60 369.40 L 606.10 372.00 L 604.20 374.50 L 601.80 376.80 L 599.00 378.90 L 595.30 381.20 L 591.00 383.20 L 586.00 385.00 L 580.30 386.60 L 568.40 388.80 L 561.60 389.40 L 554.10 389.80 L 544.30 389.80 L 533.70 389.40 L 522.10 388.40 L 510.60 386.90 L 498.50 384.90 L 485.70 382.30 L 473.10 379.20 L 460.00 375.70 L 446.60 371.50 L 433.30 366.90 L 420.60 362.00 L 408.70 356.90 L 396.80 351.50 L 385.90 345.90 L 375.80 340.30 L 365.80 334.20 L 357.00 328.30 L 349.10 322.40 L 338.20 313.10 L 329.90 304.40 L 326.30 299.70 L 323.30 295.20 L 321.10 291.00 L 319.40 287.10 L 318.50 283.60 L 317.90 280.40 L 317.80 277.30 L 318.10 274.30 L 318.80 271.40 L 320.00 268.70 L 321.50 266.10 L 323.40 263.60 L 325.80 261.30 L 328.60 259.20 L 332.30 256.90 L 336.60 254.90 L 341.60 253.10 L 353.00 250.30 L 366.00 248.70 L 373.50 248.30 L 383.30 248.30 L 394.00 248.70 L 405.50 249.70 L 417.00 251.20 L 429.10 253.20 L 441.90 255.80 L 454.50 258.90 L 467.60 262.40 L 481.00 266.60 Z"
								fill="#ffffff" fill-rule="nonzero" group-id="7,8,10,31,63,75" node-id="299"
								stroke="none" target-height="141.49998" target-width="292" target-x="317.8"
								target-y="248.3" />
						</g>
					</g>
				</g>
				<g node-id="441">
					<g node-id="473">
						<path
							d="M 548.30 393.00 L 538.70 392.70 L 528.40 392.10 L 517.40 390.90 L 494.90 387.30 L 470.80 381.80 L 445.60 374.30 L 431.90 369.50 L 418.80 364.50 L 406.50 359.30 L 394.40 353.70 L 383.20 348.00 L 372.90 342.20 L 362.80 336.00 L 353.90 329.80 L 345.90 323.80 L 340.10 318.90 L 330.50 309.60 L 326.70 305.10 L 323.00 300.20 L 320.10 295.60 L 317.90 291.20 L 316.30 287.00 L 315.40 283.50 L 314.90 280.00 L 314.80 276.80 L 315.20 273.60 L 316.00 270.50 L 317.20 267.50 L 318.80 264.70 L 320.80 262.10 L 323.20 259.60 L 326.10 257.30 L 329.90 254.90 L 334.20 252.70 L 339.30 250.70 L 345.10 248.90 L 350.90 247.60 L 364.10 245.80 L 371.70 245.30 L 381.70 245.10 L 392.60 245.50 L 404.40 246.50 L 416.10 248.00 L 428.50 250.00 L 441.60 252.60 L 454.60 255.70 L 468.00 259.40 L 482.00 263.80 L 495.00 268.30 L 507.40 273.00 L 519.40 278.10 L 531.20 283.50 L 542.30 289.10 L 552.70 294.80 L 562.80 301.00 L 572.00 307.10 L 580.30 313.30 L 586.60 318.50 L 592.10 323.40 L 600.80 332.70 L 604.50 337.80 L 607.50 342.50 L 609.70 346.90 L 611.30 351.10 L 612.30 354.70 L 612.70 358.10 L 612.80 361.40 L 612.40 364.60 L 611.60 367.60 L 610.30 370.80 L 608.50 373.80 L 606.30 376.60 L 603.60 379.20 L 600.30 381.60 L 596.00 384.20 L 591.00 386.40 L 585.20 388.40 L 578.60 390.10 L 572.00 391.30 L 557.00 392.80 L 548.30 393.00 Z M 378.80 251.30 L 371.00 251.50 L 357.30 252.70 L 345.30 255.10 L 340.10 256.70 L 335.60 258.60 L 331.70 260.70 L 328.70 262.70 L 326.30 264.90 L 324.30 267.30 L 322.80 269.70 L 321.70 272.30 L 321.00 275.00 L 320.80 277.80 L 321.00 280.70 L 321.50 283.80 L 322.60 287.00 L 324.30 290.80 L 326.60 294.80 L 329.50 299.10 L 333.30 303.60 L 338.50 309.20 L 344.90 315.00 L 352.40 321.10 L 360.20 326.70 L 368.90 332.50 L 378.70 338.40 L 388.60 343.90 L 399.30 349.30 L 410.80 354.60 L 422.50 359.50 L 434.70 364.20 L 447.50 368.60 L 460.50 372.60 L 473.10 376.10 L 485.40 379.10 L 497.80 381.60 L 509.60 383.60 L 520.90 385.10 L 532.20 386.20 L 542.60 386.70 L 552.30 386.80 L 562.00 386.30 L 570.50 385.40 L 578.00 384.10 L 583.70 382.60 L 588.60 380.90 L 592.90 379.10 L 596.50 377.00 L 599.30 375.00 L 601.60 372.90 L 603.40 370.70 L 604.90 368.30 L 605.90 365.70 L 606.60 362.60 L 606.80 359.30 L 606.30 355.70 L 605.20 351.80 L 603.70 348.10 L 601.60 344.20 L 598.80 340.00 L 595.20 335.50 L 590.20 330.00 L 584.10 324.20 L 576.60 318.00 L 568.50 312.00 L 559.50 305.90 L 549.50 299.90 L 539.40 294.30 L 528.50 288.80 L 516.90 283.50 L 505.10 278.60 L 492.90 273.90 L 480.10 269.50 L 455.60 262.20 L 431.80 256.80 L 409.50 253.30 L 398.50 252.20 L 388.30 251.50 L 378.80 251.30 Z"
							fill="#838383" fill-rule="nonzero" group-id="7,8,10,32,64" node-id="308" stroke="none"
							target-height="147.9" target-width="298" target-x="314.8" target-y="245.1" />
					</g>
				</g>
				<g node-id="442">
					<g node-id="474">
						<path
							d="M 177.90 518.40 L 362.20 283.70 L 566.20 353.50 L 510.50 603.10 L 254.30 537.90 Z"
							fill="#ffffff" fill-rule="nonzero" group-id="7,8,10,33,65" node-id="316" stroke="none"
							target-height="319.39996" target-width="388.30002" target-x="177.9" target-y="283.7" />
					</g>
				</g>
				<g node-id="443">
					<g node-id="475">
						<path
							d="M 510.50 606.10 L 508.70 605.50 L 507.90 604.70 L 507.50 603.60 L 507.50 602.40 L 562.70 355.50 L 363.20 287.20 L 180.30 520.30 L 179.40 521.00 L 178.30 521.40 L 177.10 521.30 L 176.10 520.80 L 175.30 519.90 L 174.90 518.80 L 175.00 517.60 L 175.50 516.60 L 359.80 281.90 L 361.30 280.80 L 363.20 280.90 L 567.20 350.70 L 568.90 352.10 L 569.20 354.20 L 513.40 603.70 L 512.30 605.40 L 510.50 606.10 Z"
							fill="#838383" fill-rule="nonzero" group-id="7,8,10,34,66" node-id="324" stroke="none"
							target-height="325.3" target-width="394.30002" target-x="174.9" target-y="280.8" />
					</g>
				</g>
				<g node-id="444">
					<g node-id="476">
						<g node-id="485">
							<path
								d="M 473.10 290.70 L 484.50 294.70 L 505.10 302.90 L 523.90 311.90 L 539.80 321.00 L 546.50 325.60 L 552.10 329.90 L 559.50 336.80 L 564.00 342.60 L 565.70 345.80 L 566.50 348.60 L 566.70 351.20 L 566.20 353.60 L 565.20 355.70 L 563.50 357.70 L 561.20 359.40 L 558.00 361.00 L 550.80 363.10 L 546.20 363.80 L 533.70 364.40 L 525.70 364.00 L 516.50 363.20 L 497.60 360.30 L 476.40 355.50 L 465.40 352.50 L 442.70 345.00 L 422.00 336.80 L 403.20 327.80 L 387.30 318.60 L 380.60 314.10 L 375.00 309.80 L 367.60 302.90 L 363.10 297.00 L 361.50 293.80 L 360.60 291.00 L 360.40 288.40 L 360.90 286.10 L 361.90 283.90 L 363.60 282.00 L 365.90 280.20 L 369.10 278.60 L 376.30 276.60 L 380.90 275.80 L 393.40 275.30 L 401.50 275.60 L 410.60 276.40 L 429.50 279.30 L 450.70 284.10 L 473.10 290.70 Z"
								fill="#ffffff" fill-rule="nonzero" group-id="7,8,10,35,67,76" node-id="334"
								stroke="none" target-height="89.100006" target-width="206.30002" target-x="360.4"
								target-y="275.3" />
						</g>
					</g>
				</g>
				<g node-id="445">
					<g node-id="477">
						<path
							d="M 535.40 367.40 L 519.40 366.60 L 501.30 364.00 L 482.10 360.00 L 467.60 356.20 L 453.10 351.70 L 439.40 347.00 L 426.40 341.90 L 413.90 336.40 L 402.60 330.80 L 395.20 326.80 L 382.50 319.00 L 375.20 313.80 L 369.50 309.00 L 365.20 304.70 L 362.00 300.70 L 359.70 297.00 L 358.20 293.70 L 357.50 290.70 L 357.50 287.80 L 358.00 285.10 L 359.20 282.60 L 360.90 280.40 L 363.30 278.40 L 366.40 276.50 L 370.40 274.90 L 375.40 273.70 L 381.50 272.80 L 388.90 272.30 L 397.80 272.40 L 405.00 272.90 L 421.00 274.80 L 433.40 277.00 L 446.80 280.00 L 460.20 283.60 L 474.10 287.90 L 486.80 292.30 L 499.30 297.20 L 511.50 302.50 L 530.40 311.90 L 543.30 319.70 L 554.50 327.90 L 558.90 331.80 L 564.50 338.00 L 568.00 343.50 L 569.10 346.50 L 569.60 349.30 L 569.60 351.90 L 569.10 354.50 L 568.10 356.60 L 566.80 358.60 L 565.10 360.30 L 563.00 361.90 L 559.80 363.60 L 556.00 365.00 L 551.40 366.10 L 541.40 367.30 L 535.40 367.40 Z M 392.00 278.30 L 380.50 278.90 L 376.10 279.60 L 369.50 281.70 L 367.20 282.90 L 364.40 285.60 L 363.70 287.00 L 363.50 290.20 L 365.00 294.40 L 366.70 297.10 L 369.20 300.10 L 372.60 303.60 L 380.60 310.30 L 385.90 314.00 L 398.30 321.70 L 416.60 331.00 L 428.80 336.40 L 441.50 341.40 L 454.90 346.10 L 466.80 349.70 L 478.00 352.80 L 499.00 357.50 L 517.40 360.30 L 533.80 361.30 L 540.40 361.20 L 547.00 360.70 L 552.20 359.70 L 556.20 358.60 L 559.10 357.20 L 561.20 355.80 L 562.60 354.30 L 563.40 352.60 L 563.70 350.80 L 563.50 348.80 L 562.70 346.40 L 561.10 343.60 L 558.60 340.20 L 555.00 336.40 L 550.00 332.00 L 544.80 328.10 L 530.90 319.10 L 514.50 310.50 L 494.70 301.80 L 472.20 293.60 L 458.60 289.40 L 445.40 285.90 L 432.40 282.90 L 420.20 280.70 L 404.60 278.80 L 392.00 278.30 Z"
							fill="#838383" fill-rule="nonzero" group-id="7,8,10,36,68" node-id="343" stroke="none"
							target-height="95.100006" target-width="212.09998" target-x="357.5" target-y="272.3" />
					</g>
				</g>
				<g node-id="446">
					<g node-id="478">
						<g node-id="486">
							<path
								d="M 278.10 573.30 L 273.10 573.00 L 268.20 572.10 L 263.30 570.70 L 258.50 568.70 L 254.00 566.10 L 249.70 563.00 L 247.20 560.10 L 246.00 556.80 L 245.90 553.20 L 247.10 549.80 L 249.50 546.80 L 252.60 545.00 L 256.10 544.30 L 259.70 544.90 L 261.40 545.60 L 266.00 548.90 L 269.10 550.40 L 272.20 551.40 L 275.30 552.00 L 278.40 552.20 L 284.10 551.30 L 288.80 549.10 L 292.10 545.90 L 293.60 543.00 L 294.20 539.10 L 293.30 534.10 L 291.00 529.40 L 288.70 527.00 L 287.10 526.10 L 284.80 525.40 L 279.60 525.20 L 274.60 526.10 L 268.10 528.40 L 266.40 528.80 L 262.80 528.50 L 259.50 527.00 L 258.00 525.80 L 256.90 524.50 L 255.30 521.30 L 254.90 517.70 L 257.30 481.70 L 258.60 478.50 L 260.30 476.50 L 262.40 475.00 L 264.00 474.30 L 267.50 473.70 L 304.70 473.80 L 308.10 475.10 L 310.80 477.40 L 312.70 480.50 L 313.10 482.20 L 313.10 486.10 L 311.90 489.50 L 309.60 492.20 L 306.50 494.00 L 302.80 494.70 L 277.40 494.70 L 276.70 504.40 L 281.10 504.10 L 285.90 504.30 L 292.20 505.60 L 298.40 508.30 L 301.80 510.50 L 306.00 514.50 L 310.00 520.10 L 313.30 527.70 L 314.30 531.60 L 315.20 539.00 L 314.50 546.10 L 312.30 552.80 L 308.60 558.90 L 303.60 564.10 L 300.60 566.50 L 297.10 568.50 L 293.60 570.20 L 286.00 572.50 L 278.10 573.30 Z"
								fill="#ffffff" fill-rule="nonzero" group-id="7,8,10,37,69,77" node-id="353"
								stroke="none" target-height="99.599976" target-width="69.30002" target-x="245.9"
								target-y="473.7" />
						</g>
					</g>
				</g>
				<g node-id="447">
					<g node-id="479">
						<g node-id="487">
							<path
								d="M 372.70 574.30 L 369.10 574.00 L 365.60 573.20 L 362.30 572.00 L 359.20 570.30 L 356.20 568.20 L 353.40 565.60 L 350.80 562.70 L 348.30 559.20 L 344.30 551.70 L 341.20 542.60 L 339.80 536.10 L 338.90 529.20 L 338.60 521.70 L 338.90 514.20 L 339.80 507.30 L 341.20 500.80 L 342.60 496.10 L 346.20 487.80 L 350.80 480.70 L 353.40 477.80 L 356.20 475.20 L 359.20 473.10 L 362.30 471.40 L 365.60 470.20 L 369.10 469.40 L 372.70 469.10 L 376.30 469.40 L 379.70 470.20 L 383.00 471.40 L 386.20 473.10 L 389.10 475.30 L 391.90 477.80 L 394.50 480.70 L 397.00 484.20 L 401.00 491.70 L 404.20 500.80 L 405.60 507.30 L 406.50 514.20 L 406.80 521.70 L 406.50 529.20 L 405.60 536.10 L 404.20 542.60 L 401.00 551.70 L 397.00 559.20 L 394.50 562.70 L 391.90 565.60 L 389.10 568.20 L 386.20 570.30 L 383.00 572.00 L 379.70 573.20 L 376.30 574.00 L 372.70 574.30 Z M 372.70 490.20 L 370.30 491.00 L 367.30 493.90 L 364.40 498.60 L 363.20 501.40 L 361.00 508.50 L 360.30 512.40 L 359.60 521.70 L 360.30 531.00 L 361.00 534.90 L 363.20 542.00 L 364.40 544.80 L 367.30 549.60 L 370.30 552.40 L 372.70 553.30 L 375.10 552.40 L 378.00 549.60 L 381.00 544.80 L 382.20 542.00 L 384.40 534.90 L 385.10 531.00 L 385.80 521.70 L 385.10 512.40 L 384.40 508.50 L 382.20 501.40 L 381.00 498.60 L 378.00 493.90 L 375.10 491.00 L 372.70 490.20 Z"
								fill="#ffffff" fill-rule="nonzero" group-id="7,8,10,38,70,78" node-id="364"
								stroke="none" target-height="105.19998" target-width="68.19998" target-x="338.6"
								target-y="469.1" />
						</g>
					</g>
				</g>
				<g node-id="448">
					<g node-id="480">
						<g node-id="488">
							<path
								d="M 467.30 574.70 L 463.70 574.40 L 460.30 573.70 L 457.00 572.40 L 453.80 570.70 L 450.90 568.60 L 448.10 566.10 L 445.50 563.10 L 443.00 559.70 L 439.00 552.10 L 435.80 543.00 L 434.40 536.60 L 433.50 529.70 L 433.20 522.20 L 433.50 514.60 L 434.40 507.70 L 435.80 501.30 L 437.30 496.50 L 440.90 488.20 L 445.50 481.20 L 448.10 478.20 L 450.90 475.70 L 453.80 473.60 L 457.00 471.90 L 460.30 470.60 L 463.70 469.90 L 467.30 469.60 L 470.90 469.90 L 474.40 470.60 L 477.70 471.90 L 480.90 473.60 L 483.80 475.70 L 486.60 478.20 L 489.20 481.20 L 491.70 484.60 L 495.70 492.20 L 498.80 501.30 L 500.20 507.70 L 501.10 514.60 L 501.40 522.20 L 501.10 529.70 L 500.20 536.60 L 498.80 543.00 L 495.70 552.10 L 491.70 559.70 L 489.20 563.10 L 486.60 566.10 L 483.80 568.60 L 480.90 570.70 L 477.70 572.40 L 474.40 573.70 L 470.90 574.40 L 467.30 574.70 Z M 467.30 490.60 L 464.90 491.50 L 462.00 494.30 L 459.10 499.00 L 457.80 501.80 L 455.60 509.00 L 454.90 512.90 L 454.20 522.10 L 454.90 531.40 L 455.60 535.30 L 457.80 542.50 L 459.10 545.30 L 462.00 550.00 L 464.90 552.80 L 467.30 553.70 L 469.70 552.80 L 472.70 550.00 L 475.60 545.30 L 476.80 542.50 L 479.00 535.30 L 479.80 531.40 L 480.40 522.10 L 479.80 512.90 L 479.00 509.00 L 476.80 501.80 L 475.60 499.00 L 472.70 494.30 L 469.70 491.50 L 467.30 490.60 Z"
								fill="#ffffff" fill-rule="nonzero" group-id="7,8,10,39,71,79" node-id="375"
								stroke="none" target-height="105.100006" target-width="68.19998" target-x="433.2"
								target-y="469.6" />
						</g>
					</g>
				</g>
				<g node-id="449">
					<g node-id="481">
						<g node-id="489">
							<path
								d="M 278.10 576.30 L 272.60 575.90 L 267.30 575.00 L 262.10 573.40 L 257.00 571.30 L 252.30 568.60 L 247.80 565.30 L 245.90 563.40 L 244.40 561.20 L 243.40 558.80 L 242.90 556.20 L 242.90 553.50 L 243.40 550.90 L 244.40 548.50 L 245.90 546.30 L 247.80 544.40 L 249.90 542.90 L 252.40 541.90 L 255.00 541.40 L 257.70 541.40 L 260.20 541.90 L 262.60 542.90 L 267.50 546.30 L 270.20 547.60 L 272.80 548.50 L 278.20 549.20 L 283.10 548.50 L 287.10 546.60 L 288.80 545.20 L 290.00 543.60 L 290.80 541.90 L 291.20 539.90 L 291.10 537.70 L 290.50 535.10 L 288.80 531.30 L 287.10 529.50 L 286.00 528.80 L 283.50 528.20 L 280.70 528.10 L 275.10 529.10 L 269.00 531.30 L 266.70 531.70 L 262.10 531.40 L 257.80 529.50 L 256.00 528.00 L 254.50 526.30 L 252.40 522.10 L 251.90 517.50 L 254.40 481.00 L 256.20 476.90 L 259.10 473.60 L 263.00 471.40 L 267.50 470.70 L 302.90 470.70 L 305.30 470.90 L 307.60 471.50 L 311.60 473.80 L 314.50 477.30 L 315.50 479.40 L 316.10 481.70 L 316.40 484.20 L 316.10 486.60 L 315.50 488.90 L 314.50 491.00 L 311.60 494.50 L 307.60 496.80 L 305.30 497.40 L 302.90 497.70 L 280.20 497.70 L 280.00 501.10 L 284.60 501.20 L 288.80 501.70 L 292.90 502.60 L 296.70 504.00 L 299.90 505.60 L 303.60 508.10 L 308.30 512.40 L 312.60 518.50 L 314.50 522.30 L 316.20 526.80 L 317.30 531.00 L 318.00 535.10 L 318.20 539.10 L 318.00 542.90 L 317.40 546.80 L 316.40 550.50 L 315.10 554.10 L 313.30 557.50 L 311.10 560.60 L 308.60 563.60 L 305.70 566.40 L 302.30 568.90 L 298.70 571.10 L 294.90 573.00 L 290.90 574.40 L 286.70 575.40 L 282.50 576.00 L 278.10 576.30 Z M 256.30 547.30 L 253.60 547.80 L 252.00 548.70 L 250.50 550.10 L 249.50 551.80 L 248.90 553.60 L 248.90 555.60 L 249.30 557.50 L 250.20 559.20 L 251.60 560.60 L 255.50 563.50 L 259.70 565.90 L 264.10 567.80 L 268.70 569.10 L 273.30 570.00 L 278.10 570.20 L 281.90 570.10 L 285.50 569.50 L 292.50 567.40 L 298.90 564.00 L 301.70 561.80 L 304.10 559.50 L 308.00 554.40 L 310.00 550.60 L 311.30 546.50 L 312.00 542.20 L 312.10 537.80 L 311.60 533.30 L 310.50 528.60 L 309.00 524.80 L 305.80 519.00 L 303.80 516.60 L 300.00 512.90 L 297.00 510.90 L 294.30 509.50 L 290.50 508.20 L 286.40 507.40 L 281.90 507.10 L 275.80 507.20 L 274.70 506.60 L 274.00 505.50 L 273.80 504.20 L 274.40 494.50 L 274.70 493.40 L 276.20 491.90 L 277.40 491.70 L 302.80 491.70 L 304.80 491.40 L 306.60 490.60 L 308.10 489.50 L 309.30 488.00 L 310.00 486.20 L 310.30 484.20 L 310.00 482.20 L 309.30 480.40 L 308.10 478.90 L 306.60 477.70 L 304.80 476.90 L 302.80 476.70 L 267.50 476.70 L 265.50 476.90 L 263.80 477.60 L 262.30 478.70 L 261.20 480.10 L 260.40 481.80 L 260.00 483.70 L 257.90 517.90 L 258.00 519.80 L 258.60 521.60 L 259.70 523.20 L 261.10 524.60 L 262.90 525.40 L 264.80 525.80 L 266.70 525.70 L 274.20 523.20 L 279.80 522.20 L 285.60 522.50 L 288.30 523.30 L 291.70 525.60 L 293.30 527.40 L 294.70 529.80 L 296.20 533.20 L 297.00 536.70 L 297.20 539.60 L 296.90 542.10 L 295.40 546.40 L 292.20 550.20 L 287.90 553.00 L 285.10 554.10 L 281.80 554.90 L 278.50 555.20 L 275.10 555.00 L 271.50 554.40 L 268.00 553.20 L 264.50 551.50 L 259.60 548.10 L 256.30 547.30 Z"
								fill="#838383" fill-rule="nonzero" group-id="7,8,10,40,72,80" node-id="386"
								stroke="none" target-height="105.599976" target-width="75.30002" target-x="242.9"
								target-y="470.7" />
						</g>
					</g>
				</g>
				<g node-id="450">
					<g node-id="482">
						<g node-id="490">
							<path
								d="M 372.70 577.30 L 368.70 577.00 L 365.00 576.20 L 361.40 574.90 L 358.00 573.00 L 354.80 570.80 L 351.70 568.10 L 348.90 565.00 L 346.20 561.40 L 343.90 557.60 L 340.00 548.80 L 337.20 538.70 L 335.80 527.70 L 335.60 521.70 L 335.80 515.70 L 337.20 504.70 L 340.00 494.60 L 343.90 485.80 L 346.20 482.00 L 348.90 478.40 L 351.70 475.30 L 354.80 472.60 L 358.00 470.40 L 361.40 468.50 L 365.00 467.20 L 368.70 466.40 L 372.70 466.10 L 376.60 466.40 L 380.40 467.20 L 383.90 468.50 L 387.40 470.40 L 390.60 472.60 L 393.60 475.30 L 396.50 478.40 L 399.20 482.00 L 401.50 485.90 L 405.40 494.60 L 408.20 504.70 L 409.60 515.70 L 409.80 521.70 L 409.60 527.70 L 408.20 538.70 L 405.40 548.80 L 401.50 557.60 L 399.20 561.40 L 396.50 565.00 L 393.60 568.10 L 390.60 570.80 L 387.40 573.00 L 383.90 574.90 L 380.40 576.20 L 376.60 577.00 L 372.70 577.30 Z M 372.70 472.10 L 369.40 472.40 L 366.30 473.10 L 363.30 474.30 L 360.30 475.90 L 355.10 480.30 L 350.50 486.30 L 348.00 490.90 L 345.80 496.10 L 343.90 502.00 L 342.70 508.10 L 341.90 514.60 L 341.60 521.70 L 341.90 528.80 L 342.70 535.30 L 343.90 541.40 L 345.80 547.30 L 348.00 552.50 L 350.50 557.10 L 355.10 563.10 L 360.30 567.50 L 363.30 569.10 L 366.30 570.30 L 369.40 571.00 L 372.70 571.30 L 376.00 571.00 L 379.10 570.30 L 382.10 569.10 L 385.00 567.50 L 387.70 565.50 L 392.60 560.30 L 394.90 557.10 L 397.40 552.50 L 399.60 547.30 L 401.40 541.40 L 402.70 535.30 L 403.50 528.80 L 403.80 521.70 L 403.50 514.60 L 402.70 508.10 L 401.40 502.00 L 399.60 496.10 L 397.40 490.90 L 394.90 486.30 L 390.20 480.30 L 385.00 475.90 L 382.10 474.30 L 379.10 473.10 L 376.00 472.40 L 372.70 472.10 Z M 372.70 556.30 L 370.80 556.00 L 369.00 555.10 L 367.00 553.60 L 363.50 549.40 L 361.80 546.40 L 359.10 539.60 L 358.00 535.40 L 356.80 526.70 L 356.60 521.70 L 356.80 516.70 L 358.00 508.00 L 359.10 503.80 L 361.80 497.00 L 363.50 494.00 L 367.00 489.80 L 369.00 488.30 L 370.80 487.40 L 372.70 487.10 L 374.50 487.40 L 376.40 488.30 L 378.40 489.80 L 381.90 494.00 L 383.60 497.00 L 386.20 503.80 L 387.30 508.00 L 388.60 516.70 L 388.80 521.70 L 388.60 526.70 L 387.30 535.40 L 386.20 539.60 L 383.60 546.40 L 381.90 549.40 L 378.40 553.60 L 376.40 555.10 L 374.50 556.00 L 372.70 556.30 Z M 372.70 493.20 L 371.80 493.50 L 370.20 495.10 L 368.70 497.10 L 366.80 500.40 L 365.30 504.20 L 363.20 512.80 L 362.60 521.70 L 363.20 530.60 L 365.30 539.20 L 366.90 543.00 L 368.70 546.30 L 370.20 548.40 L 371.80 549.90 L 372.70 550.30 L 373.50 549.90 L 375.10 548.40 L 376.70 546.30 L 378.50 543.00 L 380.10 539.20 L 382.10 530.60 L 382.80 521.70 L 382.20 512.80 L 380.10 504.20 L 378.50 500.40 L 376.70 497.10 L 375.10 495.10 L 373.50 493.50 L 372.70 493.20 Z"
								fill="#838383" fill-rule="nonzero" group-id="7,8,10,41,73,81" node-id="397"
								stroke="none" target-height="111.19998" target-width="74.19998" target-x="335.6"
								target-y="466.1" />
						</g>
					</g>
				</g>
				<path
					d="M 466.50 577.30 L 462.60 577.00 L 458.90 576.20 L 455.30 574.90 L 451.80 573.00 L 448.60 570.80 L 445.60 568.10 L 442.70 565.00 L 440.00 561.40 L 437.70 557.60 L 433.80 548.80 L 431.10 538.70 L 429.60 527.70 L 429.40 521.70 L 429.60 515.70 L 431.10 504.70 L 433.80 494.60 L 437.70 485.80 L 440.00 482.00 L 442.70 478.40 L 445.60 475.30 L 448.60 472.60 L 451.80 470.40 L 455.30 468.50 L 458.90 467.20 L 462.60 466.40 L 466.50 466.10 L 470.50 466.40 L 474.20 467.20 L 477.80 468.50 L 481.20 470.40 L 484.40 472.60 L 487.50 475.30 L 490.30 478.40 L 493.00 482.00 L 495.30 485.90 L 499.20 494.60 L 502.00 504.70 L 503.40 515.70 L 503.60 521.70 L 503.40 527.70 L 502.00 538.70 L 499.20 548.80 L 495.30 557.60 L 493.00 561.40 L 490.30 565.00 L 487.50 568.10 L 484.40 570.80 L 481.20 573.00 L 477.80 574.90 L 474.20 576.20 L 470.50 577.00 L 466.50 577.30 Z M 466.50 472.10 L 463.20 472.40 L 460.10 473.10 L 457.10 474.30 L 454.20 475.90 L 449.00 480.30 L 444.30 486.30 L 441.80 490.90 L 439.60 496.10 L 437.80 502.00 L 436.50 508.10 L 435.70 514.60 L 435.40 521.70 L 435.70 528.80 L 436.50 535.30 L 437.80 541.40 L 439.60 547.30 L 441.80 552.50 L 444.30 557.10 L 449.00 563.10 L 454.20 567.50 L 457.10 569.10 L 460.10 570.30 L 463.20 571.00 L 466.50 571.30 L 469.80 571.00 L 472.90 570.30 L 476.00 569.10 L 478.90 567.50 L 481.50 565.50 L 486.50 560.30 L 488.70 557.10 L 491.30 552.50 L 493.40 547.30 L 495.30 541.40 L 496.50 535.30 L 497.30 528.80 L 497.60 521.70 L 497.30 514.60 L 496.50 508.10 L 495.30 502.00 L 493.40 496.10 L 491.30 490.90 L 488.70 486.30 L 484.10 480.30 L 478.90 475.90 L 476.00 474.30 L 472.90 473.10 L 469.80 472.40 L 466.50 472.10 Z M 466.50 556.30 L 464.70 556.00 L 462.80 555.10 L 460.80 553.60 L 457.30 549.40 L 455.60 546.40 L 453.00 539.60 L 451.90 535.40 L 450.60 526.70 L 450.40 521.70 L 451.10 512.20 L 451.90 508.00 L 454.20 500.20 L 455.60 497.00 L 459.10 491.60 L 460.80 489.80 L 462.80 488.30 L 464.70 487.40 L 466.50 487.10 L 468.40 487.40 L 470.20 488.30 L 472.20 489.80 L 475.70 494.00 L 477.40 497.00 L 480.10 503.80 L 481.20 508.00 L 482.40 516.70 L 482.60 521.70 L 482.40 526.70 L 481.20 535.40 L 480.10 539.60 L 477.40 546.40 L 475.70 549.40 L 472.20 553.60 L 470.20 555.10 L 468.40 556.00 L 466.50 556.30 Z M 466.50 493.20 L 465.70 493.50 L 464.10 495.10 L 462.50 497.10 L 460.70 500.40 L 459.10 504.20 L 457.10 512.80 L 456.40 521.70 L 457.10 530.60 L 459.20 539.20 L 460.70 543.00 L 462.60 546.30 L 464.10 548.40 L 465.70 549.90 L 466.60 550.30 L 467.40 549.90 L 469.00 548.40 L 470.50 546.30 L 472.40 543.00 L 473.90 539.20 L 476.00 530.60 L 476.60 521.70 L 476.00 512.80 L 473.90 504.20 L 472.40 500.40 L 470.50 497.10 L 469.00 495.10 L 467.40 493.50 L 466.50 493.20 Z"
					fill="#838383" fill-rule="nonzero" group-id="7,8,10,42,74,82" node-id="408" stroke="none"
					target-height="111.19998" target-width="74.20001" target-x="429.4" target-y="466.1" />
			</g>
		</g>
	</g>
</svg>